<svg width="329" height="180" viewBox="0 0 329 180" fill="none" xmlns="http://www.w3.org/2000/svg">
<rect width="329" height="180" rx="30" fill="#E8E3D5"/>
<path d="M269.487 108.064C276.007 108.064 279.309 103.938 279.309 95.6838C279.309 87.4301 276.007 83.3853 269.487 83.3853C262.966 83.3853 259.666 87.4301 259.666 95.6838C259.666 103.938 262.968 108.064 269.487 108.064ZM269.487 117.061C256.364 117.061 248.605 108.312 248.605 95.6838C248.605 83.0556 256.611 74.3066 269.487 74.3066C282.362 74.3066 290.119 82.7259 290.119 95.6838C290.119 108.642 282.115 117.061 269.487 117.061Z" fill="#141414"/>
<path d="M247.193 117.058H236.464V61.5933H247.193V117.058Z" fill="#141414"/>
<path d="M224.24 100.554L224.322 96.0978C223.25 97.1703 221.351 97.7488 217.39 98.4915C211.282 99.6474 209.302 101.38 209.302 104.847C209.302 107.901 211.117 109.387 214.501 109.387C220.031 109.387 224.158 105.342 224.24 100.556V100.554ZM235.051 117.061H224.404C224.404 116.133 224.488 113.595 224.404 112.357C221.845 115.162 217.554 117.061 212.107 117.061C202.863 117.061 198.571 112.521 198.571 105.918C198.571 94.198 206.412 92.8768 217.224 91.3912C222.589 90.6485 224.075 89.576 224.075 86.7692C224.075 84.1278 221.433 82.5602 217.224 82.5602C212.355 82.5602 210.374 84.9539 209.879 88.5856H199.893C200.058 80.1664 204.68 74.3064 217.72 74.3064C230.759 74.3064 235.051 80.0843 235.051 90.3187V115.987V117.061Z" fill="#141414"/>
<path d="M197.16 117.058H186.431V76.4498H197.16V117.058ZM197.16 71.5802H186.431V61.5933H197.16V71.5802Z" fill="#141414"/>
<path d="M166.283 71.7131H151.51V86.3221H165.87C171.978 86.3221 174.289 83.2689 174.289 79.0587C174.289 74.8485 171.979 71.7131 166.283 71.7131ZM183.532 117.026H172.308V102.912C172.308 97.6291 170.327 95.5662 163.724 95.5662H151.51V117.026H140.367V61.5151H168.181C178.333 61.5151 185.017 68.9896 185.017 78.0683C185.017 83.9283 182.129 88.8801 176.846 90.7787C181.716 92.3464 183.531 95.071 183.531 101.508V117.026H183.532Z" fill="#141414"/>
<path d="M94.3922 98.7482C91.8788 98.6067 89.119 97.6396 87.4386 95.7371C85.1017 93.1967 84.2745 89.0684 85.6917 85.8639C87.9516 80.7539 92.0637 79.7134 96.3992 80.0165C99.6299 80.0165 106.846 80.0974 110.604 80.0974C111.833 80.08 112.909 80.1551 114.005 80.0165C116.53 79.7509 118.91 78.0999 120.26 75.8886C122.829 72.0028 121.837 66.2762 118.236 63.6565C116.689 62.5306 114.829 62.0196 112.923 61.8752C111.972 61.78 111.014 61.6732 110.112 61.3989C107.257 60.5473 104.963 58.1005 104.023 55.2944C103.508 53.8336 103.528 52.2487 103.265 50.736C102.658 47.0927 99.8376 44.2982 96.1731 43.4697C95.3373 43.2734 94.5448 43.129 93.7697 43.1232C84.8875 43.0944 70.5783 43.0106 67.2348 43.002C62.7952 42.9096 58.5551 46.0506 57.7771 50.4906C56.8718 54.795 59.4778 59.3967 63.5935 60.843C65.0483 61.3858 66.2341 61.5041 67.8191 61.4868C72.6723 61.533 72.3668 61.6485 75.0248 61.6745C78.4435 61.5648 82.1601 63.2276 83.8116 66.2762C87.4182 72.9305 82.2873 80.0178 74.9381 79.758C65.8477 79.7782 61.8698 79.7465 50.9602 79.7551C49.0831 79.7696 47.6369 79.6483 45.8582 80.1246C40.7418 81.3256 37.6326 87.2264 39.5386 92.1399C40.6839 95.379 43.7179 97.7174 47.1424 98.136C51.4171 98.4132 59.5512 98.1678 70.3452 98.2457C72.8296 98.2457 74.6488 98.2457 75.3719 98.2457C76.0689 98.24 76.7226 98.3208 77.4746 98.4709C82.0617 99.2417 85.1941 103.705 84.9309 108.229C84.9309 111.28 84.9309 120.625 84.9309 125.282C84.9222 126.959 85.223 128.685 86.0907 130.316C88.5751 135.152 95.2736 136.693 99.6438 133.385C102.947 130.963 103.661 127.438 103.473 123.619C103.467 119.736 103.479 113.107 103.473 108.809C103.846 103.101 99.8548 98.921 94.453 98.7597L94.3951 98.7539L94.3922 98.7482Z" fill="#141414"/>
</svg>
